<svg width="13" height="13" viewBox="0 0 13 13" fill="none" xmlns="http://www.w3.org/2000/svg">
<path d="M12.2857 0.714285C11.7143 0.142857 10.2857 0.714285 9.42857 1.57143L8 3L2.0625 1.58036C1.97321 1.55357 1.86607 1.58928 1.79464 1.65178L0.651786 2.79464C0.589286 2.85714 0.5625 2.95536 0.571429 3.03571C0.589286 3.125 0.642857 3.20536 0.723214 3.25L5.25893 5.74107L2.94643 8.05357L1.21429 7.58036C1.19643 7.57143 1.16964 7.57143 1.14286 7.57143C1.07143 7.57143 0.991071 7.59821 0.9375 7.65179L0.0803571 8.51786C0.0267857 8.58036 -0.00892857 8.66071 0 8.74107C0.00892857 8.82143 0.0446429 8.90179 0.116071 8.94643L2.36607 10.6339L4.05357 12.8839C4.10714 12.9554 4.17857 12.9911 4.26786 13C4.27679 13 4.27679 13 4.28571 13C4.35714 13 4.4375 12.9732 4.49107 12.9196L5.34821 12.0625C5.41964 11.9821 5.44643 11.8839 5.41964 11.7857L4.94643 10.0536L7.25893 7.74107L9.75 12.2768C9.78572 12.3571 9.85714 12.4018 9.9375 12.4196C9.96429 12.4286 9.98214 12.4286 10 12.4286C10.0625 12.4286 10.125 12.4107 10.1696 12.375L11.3125 11.5179C11.4018 11.4464 11.4464 11.3304 11.4196 11.2232L9.99107 5.00893L11.4286 3.57143C12.2857 2.71428 12.8571 1.28571 12.2857 0.714285Z" fill="white"/>
</svg>
